<?xml version="1.0" encoding="UTF-8" standalone="no"?>
<svg
   xmlns:dc="http://purl.org/dc/elements/1.1/"
   xmlns:cc="http://creativecommons.org/ns#"
   xmlns:rdf="http://www.w3.org/1999/02/22-rdf-syntax-ns#"
   xmlns:svg="http://www.w3.org/2000/svg"
   xmlns="http://www.w3.org/2000/svg"
   xmlns:sodipodi="http://sodipodi.sourceforge.net/DTD/sodipodi-0.dtd"
   xmlns:inkscape="http://www.inkscape.org/namespaces/inkscape"
   fill="#092e20"
   height="64"
   width="64"
   version="1.1"
   id="svg878"
   sodipodi:docname="djangoproject-icon.svg"
   inkscape:version="0.92.3 (2405546, 2018-03-11)">
  <metadata
     id="metadata884">
    <rdf:RDF>
      <cc:Work
         rdf:about="">
        <dc:format>image/svg+xml</dc:format>
        <dc:type
           rdf:resource="http://purl.org/dc/dcmitype/StillImage" />
      </cc:Work>
    </rdf:RDF>
  </metadata>
  <defs
     id="defs882" />
  <sodipodi:namedview
     pagecolor="#ffffff"
     bordercolor="#666666"
     borderopacity="1"
     objecttolerance="10"
     gridtolerance="10"
     guidetolerance="10"
     inkscape:pageopacity="0"
     inkscape:pageshadow="2"
     inkscape:window-width="1366"
     inkscape:window-height="713"
     id="namedview880"
     showgrid="false"
     inkscape:zoom="3.6875"
     inkscape:cx="0.40677966"
     inkscape:cy="32"
     inkscape:window-x="0"
     inkscape:window-y="27"
     inkscape:window-maximized="1"
     inkscape:current-layer="svg878" />
  <path
     d="m27.724 0h10.476v48.44c-5.368 1.02-9.3 1.427-13.6 1.427-12.776 0-19.435-5.776-19.435-16.853 0-10.67 7.068-17.6 18.008-17.6 1.7 0 3 .135 4.553.543zm0 24.383c-1.223-.407-2.242-.543-3.533-.543-5.3 0-8.36 3.262-8.36 8.97 0 5.573 2.922 8.63 8.3 8.63 1.155 0 2.106-.068 3.6-.27zm27.113-8.223v24.26c0 8.36-.612 12.368-2.446 15.833-1.7 3.33-3.942 5.436-8.562 7.747l-9.718-4.62c4.62-2.174 6.863-4.076 8.3-7 1.495-3 1.97-6.456 1.97-15.56v-20.66zm-10.465-16.104h10.465v10.737h-10.465z"
     id="path876"
     style="fill:#495057;fill-opacity:1" />
</svg>
