<?xml version="1.0" encoding="UTF-8" standalone="no"?>
<svg
   height="95.726059"
   id="svg3120"
   version="1.1"
   viewBox="0 0 85.911559 95.726065"
   width="85.91156"
   xml:space="preserve"
   sodipodi:docname="rails.svg"
   inkscape:version="1.2.2 (732a01da63, 2022-12-09)"
   xmlns:inkscape="http://www.inkscape.org/namespaces/inkscape"
   xmlns:sodipodi="http://sodipodi.sourceforge.net/DTD/sodipodi-0.dtd"
   xmlns="http://www.w3.org/2000/svg"
   xmlns:svg="http://www.w3.org/2000/svg"
   xmlns:rdf="http://www.w3.org/1999/02/22-rdf-syntax-ns#"
   xmlns:cc="http://creativecommons.org/ns#"
   xmlns:dc="http://purl.org/dc/elements/1.1/"><metadata
     id="metadata27"><rdf:RDF><cc:Work
         rdf:about=""><dc:format>image/svg+xml</dc:format><dc:type
           rdf:resource="http://purl.org/dc/dcmitype/StillImage" /><dc:title /></cc:Work></rdf:RDF></metadata><defs
     id="defs25" /><sodipodi:namedview
     pagecolor="#ffffff"
     bordercolor="#666666"
     borderopacity="1"
     objecttolerance="10"
     gridtolerance="10"
     guidetolerance="10"
     inkscape:pageopacity="0"
     inkscape:pageshadow="2"
     inkscape:window-width="1920"
     inkscape:window-height="991"
     id="namedview23"
     showgrid="false"
     inkscape:zoom="2.4070283"
     inkscape:cx="55.670305"
     inkscape:cy="57.53983"
     inkscape:window-x="-9"
     inkscape:window-y="-9"
     inkscape:window-maximized="1"
     inkscape:current-layer="svg3120"
     inkscape:showpageshadow="2"
     inkscape:pagecheckerboard="0"
     inkscape:deskcolor="#d1d1d1" /><g
     id="layer7"
     transform="matrix(0.80412171,0,0,0.71123668,-225.57785,-315.83532)"
     style="fill:#483737;fill-opacity:1"><path
       d="m 286.594,555.5 v 23.156 h 5.906 v -6.031 l 5.375,5.375 h 9.062 l -7.188,-7.188 c 0,0 5.171,-0.084 5.562,-7.562 0,-6.861 -5.177,-7.75 -11.156,-7.75 z m 6.187,6.281 h 5.094 v 4.125 h -5.094 z"
       id="path3993"
       inkscape:connector-curvature="0"
       style="fill:#483737;fill-opacity:1" /><path
       d="m 318.344,555.594 c -3.234,-0.019 -7.719,0.281 -7.719,6.375 v 16.094 h 6.062 v -3.938 h 5.875 v 3.844 h 6.094 v -16.875 c 0,-5.293 -5.881,-5.5 -9.031,-5.5 -0.394,0 -0.819,0.003 -1.281,0 z m -1.563,5.812 h 5.688 v 6.344 h -5.688 z"
       id="path3997"
       inkscape:connector-curvature="0"
       style="fill:#483737;fill-opacity:1" /><rect
       height="22.152"
       id="rect4001"
       width="6.2719998"
       x="334.73001"
       y="555.60901"
       style="fill:#483737;fill-opacity:1" /><path
       d="m 347.571,555.903 v 22.152 h 15.094 v -5.881 h -8.919 v -16.369 z"
       id="path4003"
       inkscape:connector-curvature="0"
       style="fill:#483737;fill-opacity:1" /><path
       d="m 382.661,555.707 v 5.979 h -10.096 v 2.156 c 0,0 2.059,0 4.312,0 2.253,0 6.959,-0.098 6.959,6.96 0,7.057 -3.234,7.449 -9.801,7.449 -6.568,0 -7.939,0 -7.939,0 v -5.392 c 0,0 6.371,0 9.115,0 2.744,0 2.896,-0.894 2.896,-1.672 0,-0.778 -1.403,-1.141 -4.257,-1.141 -2.854,0 -8.146,-1.402 -8.146,-6.891 0,-5.489 2.744,-7.548 8.233,-7.548 5.489,0 8.724,0.1 8.724,0.1 z"
       id="path4005"
       inkscape:connector-curvature="0"
       style="fill:#483737;fill-opacity:1" /></g><g
     id="layer6"
     transform="matrix(0.80412171,0,0,0.71123668,-225.57785,-315.83532)"
     style="fill:#483737;fill-opacity:0.990244"><path
       d="m 292.092,548.944 h 52.146 c 0,0 -11.566,-26.269 -8.626,-50.381 2.941,-24.112 21.956,-35.091 32.738,-36.267 10.781,-1.177 16.663,5.489 16.663,5.489 l 2.353,-3.529 c 0,0 -15.487,-15.683 -35.091,-13.918 -19.604,1.764 -33.13,14.702 -41.559,30.385 -8.43,15.684 -13.331,26.661 -16.663,43.128 -3.332,16.467 -1.961,25.093 -1.961,25.093 z"
       id="path3966"
       inkscape:connector-curvature="0"
       style="fill:#483737;fill-opacity:0.990244" /><path
       d="m 281.703,522.675 10.194,0.784 -1.765,10.193 -9.605,-1.176 z"
       id="path3968"
       inkscape:connector-curvature="0"
       style="fill:#483737;fill-opacity:0.990244" /><path
       d="m 297.778,501.111 2.745,-7.645 -9.018,-3.529 -2.94,8.233 z"
       id="path3970"
       inkscape:connector-curvature="0"
       style="fill:#483737;fill-opacity:0.990244" /><path
       d="m 310.52,474.842 5.293,-6.272 -6.861,-4.509 -5.489,6.076 z"
       id="path3972"
       inkscape:connector-curvature="0"
       style="fill:#483737;fill-opacity:0.990244" /><path
       d="m 324.438,450.534 4.705,5.685 6.469,-3.725 -4.705,-5.293 z"
       id="path3974"
       inkscape:connector-curvature="0"
       style="fill:#483737;fill-opacity:0.990244" /><path
       d="m 347.375,444.065 1.176,5.686 8.038,-0.196 -0.785,-5.097 z"
       id="path3976"
       inkscape:connector-curvature="0"
       style="fill:#483737;fill-opacity:0.990244" /><path
       d="m 374.624,450.142 -0.196,3.528 5.489,2.94 1.176,-1.764 z"
       id="path3978"
       inkscape:connector-curvature="0"
       style="fill:#483737;fill-opacity:0.990244" /><path
       d="m 373.447,465.237 v 2.94 l 5.293,0.588 v -2.353 z"
       id="path3980"
       inkscape:connector-curvature="0"
       style="fill:#483737;fill-opacity:0.990244" /><path
       d="m 356.589,467.785 2.548,4.704 3.725,-2.94 -0.784,-3.137 z"
       id="path3982"
       inkscape:connector-curvature="0"
       style="fill:#483737;fill-opacity:0.990244" /><path
       d="m 348.55,473.863 3.921,5.881 -2.353,4.116 -5.685,-6.272 z"
       id="path3984"
       inkscape:connector-curvature="0"
       style="fill:#483737;fill-opacity:0.990244" /><path
       d="m 340.71,490.133 -2.549,5.097 6.665,5.686 1.568,-6.47 z"
       id="path3986"
       inkscape:connector-curvature="0"
       style="fill:#483737;fill-opacity:0.990244" /><path
       d="m 337.965,507.972 -0.392,6.861 8.233,3.529 -0.392,-6.47 z"
       id="path3988"
       inkscape:connector-curvature="0"
       style="fill:#483737;fill-opacity:0.990244" /><path
       d="m 340.317,532.281 1.961,7.058 10.389,0.588 -3.725,-7.646 z"
       id="path3990"
       inkscape:connector-curvature="0"
       style="fill:#483737;fill-opacity:0.990244" /></g></svg>
