<?xml version="1.0" encoding="UTF-8" standalone="no"?>
<svg
   width="96.427879"
   height="72.2798"
   viewBox="0 0 19.74843 14.802903"
   version="1.1"
   id="svg234"
   sodipodi:docname="sass-1.svg"
   inkscape:version="1.2.2 (732a01da63, 2022-12-09)"
   xmlns:inkscape="http://www.inkscape.org/namespaces/inkscape"
   xmlns:sodipodi="http://sodipodi.sourceforge.net/DTD/sodipodi-0.dtd"
   xmlns="http://www.w3.org/2000/svg"
   xmlns:svg="http://www.w3.org/2000/svg">
  <defs
     id="defs238" />
  <sodipodi:namedview
     id="namedview236"
     pagecolor="#ffffff"
     bordercolor="#000000"
     borderopacity="0.25"
     inkscape:showpageshadow="2"
     inkscape:pageopacity="0.0"
     inkscape:pagecheckerboard="0"
     inkscape:deskcolor="#d1d1d1"
     showgrid="false"
     inkscape:zoom="4.8580061"
     inkscape:cx="22.437189"
     inkscape:cy="18.629042"
     inkscape:window-width="1920"
     inkscape:window-height="991"
     inkscape:window-x="-9"
     inkscape:window-y="-9"
     inkscape:window-maximized="1"
     inkscape:current-layer="svg234" />
  <path
     fill="#cf649a"
     d="m 17.000364,8.5002415 c -0.690483,0.00389 -1.288387,0.1697278 -1.789855,0.4166426 -0.185157,-0.3664569 -0.370315,-0.6866637 -0.401136,-0.9257865 -0.03472,-0.2777358 -0.07715,-0.447502 -0.03472,-0.7792038 0.04239,-0.3317789 0.235265,-0.8023871 0.235265,-0.8409614 -0.0039,-0.034717 -0.04247,-0.2044448 -0.439749,-0.2083021 -0.397278,-0.00386 -0.74063,0.077149 -0.779203,0.1812999 -0.03857,0.104151 -0.115724,0.3433125 -0.165871,0.5901889 -0.06943,0.3626001 -0.794633,1.647129 -1.20738,2.3221818 -0.135011,-0.2623066 -0.250734,-0.4937529 -0.273917,-0.6789483 -0.03468,-0.2776983 -0.07715,-0.4474638 -0.03468,-0.7791659 0.04243,-0.3317786 0.235304,-0.8023484 0.235304,-0.8409229 -0.0039,-0.034717 -0.04243,-0.2044446 -0.43971,-0.2083019 -0.397356,-0.00386 -0.74063,0.077149 -0.779204,0.1812999 -0.03858,0.104151 -0.08101,0.3510275 -0.16587,0.5901892 -0.08105,0.2391612 -1.0454064,2.3839007 -1.2961402,2.94323 -0.1272959,0.285451 -0.2391235,0.513041 -0.3201686,0.667339 -0.081006,0.154297 -0.00386,0.01157 -0.011572,0.027 -0.069434,0.131154 -0.1080086,0.204445 -0.1080086,0.204445 v 0.0039 c -0.054004,0.09644 -0.111866,0.188977 -0.1389062,0.188977 -0.019287,0 -0.057862,-0.258449 0.00771,-0.613296 0.1427254,-0.744525 0.4898957,-1.905577 0.4860768,-1.9480091 0,-0.019287 0.065538,-0.2237709 -0.2237702,-0.3278831 -0.2815939,-0.1041513 -0.3818487,0.069434 -0.4050317,0.069434 -0.023145,0 -0.042432,0.061719 -0.042432,0.061719 0,0 0.3124529,-1.3076352 -0.5979042,-1.3076352 -0.5709017,0 -1.3578207,0.6210488 -1.7474224,1.1880929 C 6.3152029,8.8127724 5.7905903,9.0981845 5.2351182,9.4029614 5.0229588,9.5186845 4.8030846,9.6421231 4.5947824,9.7539891 L 4.5523892,9.7076218 C 3.4491599,8.5311015 1.4085716,7.6978935 1.4934354,6.116341 1.5242949,5.5415817 1.7248821,4.0256058 5.4126378,2.1894622 8.433017,0.68505871 10.851635,1.0978053 11.272058,2.0158772 11.869962,3.3274084 9.9798141,5.7653135 6.8398924,6.116341 5.6440846,6.2513514 5.0152825,5.7884582 4.8571658,5.6148732 4.6912956,5.4335731 4.668151,5.4258583 4.606432,5.4605753 c -0.1002937,0.054004 -0.038575,0.2160168 0,0.3124532 C 4.699011,6.0160473 5.0847552,6.4480812 5.7405207,6.6640981 6.3152413,6.8531129 7.7193897,6.9572638 9.4166656,6.3014983 11.318386,5.5647264 12.803502,3.5202806 12.36761,1.8114326 11.924005,0.07172498 9.0386359,-0.49917685 6.3114226,0.4690418 4.6873998,1.0476585 2.9284048,1.9503006 1.6631629,3.1345362 0.15875948,4.5386461 -0.08040209,5.7653135 0.01989148,6.2744961 0.37095752,8.0913524 2.8744006,9.2755882 3.8773364,10.151228 c -0.050147,0.02696 -0.096436,0.05397 -0.1388682,0.07715 -0.5014676,0.246838 -2.4109029,1.245955 -2.88922608,2.302856 -0.54004229,1.195808 0.0848637,2.056057 0.50146778,2.17178 1.2883866,0.358743 2.6076327,-0.285451 3.32126,-1.346248 0.7097313,-1.060798 0.6249062,-2.437905 0.2970233,-3.066669 l -0.011611,-0.02314 0.3934594,-0.231446 C 5.6054719,9.8850644 5.8562057,9.7461966 6.0760415,9.626577 5.9526418,9.9621746 5.863882,10.359492 5.8176311,10.938108 c -0.054004,0.678949 0.2237321,1.558408 0.5901892,1.905578 0.1620126,0.150402 0.3548849,0.154297 0.4744658,0.154297 0.4243188,0 0.6171912,-0.351065 0.8293507,-0.771488 0.2623059,-0.513041 0.4937531,-1.107087 0.4937531,-1.107087 0,0 -0.2893086,1.608554 0.5014675,1.608554 0.2893084,0 0.5786169,-0.374171 0.70977,-0.567044 v 0.0039 c 0,0 0.00771,-0.01157 0.023145,-0.03857 a 1.3936948,1.3936948 0 0 0 0.046289,-0.07325 v -0.0077 c 0.1157231,-0.200587 0.3741714,-0.659623 0.7599166,-1.419539 0.497572,-0.9797919 0.975933,-2.2064586 0.975933,-2.2064586 0,0 0.04629,0.3008802 0.189015,0.7946333 0.08483,0.2932048 0.269982,0.6133342 0.412708,0.9257863 -0.115724,0.162014 -0.185158,0.25463 -0.185158,0.25463 l 0.0039,0.0039 c -0.09254,0.123439 -0.19673,0.25463 -0.304701,0.385744 -0.393458,0.470608 -0.864067,1.006833 -0.925786,1.16113 -0.07329,0.181261 -0.05786,0.316272 0.08486,0.424319 0.104151,0.07715 0.289308,0.09254 0.486037,0.07715 0.354885,-0.02318 0.601762,-0.111866 0.725201,-0.165909 0.192871,-0.06943 0.412746,-0.173585 0.624906,-0.327882 0.385744,-0.285413 0.621048,-0.690445 0.597903,-1.230487 -0.01157,-0.297023 -0.108008,-0.590189 -0.227589,-0.8679252 0.03472,-0.050147 0.06947,-0.1003317 0.104151,-0.1542979 0.609477,-0.8911083 1.080085,-1.8708604 1.080085,-1.8708604 0,0 0.04629,0.3008802 0.189014,0.7946333 0.07325,0.2507344 0.219875,0.5246513 0.351028,0.7946723 -0.570902,0.4667509 -0.929644,1.0067929 -1.053083,1.3616779 -0.227589,0.655766 -0.05015,0.952789 0.285452,1.022223 0.150401,0.03086 0.366457,-0.03857 0.528431,-0.108008 0.200587,-0.06558 0.443606,-0.177482 0.667376,-0.343313 0.385745,-0.28545 0.75606,-0.682768 0.736772,-1.218952 -0.01157,-0.246877 -0.07715,-0.4898961 -0.16587,-0.7213426 0.486038,-0.2005872 1.114763,-0.3163103 1.913293,-0.2198744 1.716563,0.2005871 2.056018,1.272957 1.99048,1.720421 -0.06558,0.447502 -0.424319,0.69434 -0.543939,0.771488 -0.11958,0.07329 -0.158155,0.100333 -0.146582,0.154298 0.01543,0.08105 0.06943,0.07715 0.173584,0.06176 0.142726,-0.02318 0.902643,-0.366457 0.933502,-1.191912 0.04629,-1.0609515 -0.960504,-2.2181853 -2.7465,-2.2066516 z M 3.7616131,12.963305 C 3.1945687,13.584354 2.3960776,13.819658 2.0566223,13.619071 1.690165,13.406912 1.8328519,12.492697 2.5310881,11.833074 2.955407,11.4319 3.5070217,11.061585 3.8696215,10.833996 c 0.081006,-0.05015 0.2044445,-0.1234 0.3510275,-0.212159 0.023145,-0.01539 0.038574,-0.02314 0.038574,-0.02314 0.027002,-0.01543 0.057862,-0.03472 0.088721,-0.05401 0.258449,0.941217 0.011572,1.76671 -0.5863309,2.418618 z M 7.9083657,10.143514 C 7.7116366,10.625694 7.2950323,11.863933 7.0442985,11.794499 6.828243,11.736638 6.6971284,10.799279 7.001828,9.8734925 7.1561259,9.4067023 7.4840085,8.8512692 7.676881,8.6352137 7.9893723,8.288044 8.3287891,8.17232 8.4136913,8.315046 8.5139845,8.5002415 8.0318042,9.8426325 7.9083657,10.143514 Z M 11.32992,11.77907 c -0.08486,0.04247 -0.162013,0.07329 -0.19673,0.05018 -0.027,-0.01543 0.03468,-0.07329 0.03468,-0.07329 0,0 0.428176,-0.459036 0.597904,-0.671196 0.09644,-0.123399 0.21216,-0.266125 0.335598,-0.428176 v 0.04629 c 3.8e-5,0.555434 -0.532288,0.925749 -0.77145,1.076189 z m 2.638453,-0.601761 c -0.06172,-0.04629 -0.05397,-0.189016 0.154298,-0.636479 0.08104,-0.177443 0.266164,-0.474466 0.586332,-0.7560589 0.03857,0.1157234 0.06176,0.2275499 0.05786,0.3317399 -0.0038,0.69434 -0.497572,0.952789 -0.798492,1.060798 z"
     id="path232"
     style="stroke-width:0.0385745;fill:#1a1a1a" />
</svg>
