<?xml version="1.0" encoding="UTF-8" standalone="no"?>
<!-- Uploaded to: SVG Repo, www.svgrepo.com, Generator: SVG Repo Mixer Tools -->

<svg
   fill="#000000"
   height="104.89584"
   width="106.6665"
   version="1.1"
   id="Capa_1"
   viewBox="0 0 7.9999878 7.8671882"
   xml:space="preserve"
   sodipodi:docname="server-svgrepo-com22.svg"
   inkscape:version="1.2.2 (732a01da63, 2022-12-09)"
   xmlns:inkscape="http://www.inkscape.org/namespaces/inkscape"
   xmlns:sodipodi="http://sodipodi.sourceforge.net/DTD/sodipodi-0.dtd"
   xmlns="http://www.w3.org/2000/svg"
   xmlns:svg="http://www.w3.org/2000/svg"><defs
   id="defs134" /><sodipodi:namedview
   id="namedview132"
   pagecolor="#ffffff"
   bordercolor="#000000"
   borderopacity="0.25"
   inkscape:showpageshadow="2"
   inkscape:pageopacity="0.0"
   inkscape:pagecheckerboard="0"
   inkscape:deskcolor="#d1d1d1"
   showgrid="false"
   inkscape:zoom="1.2723861"
   inkscape:cx="81.736199"
   inkscape:cy="120.63949"
   inkscape:window-width="1920"
   inkscape:window-height="991"
   inkscape:window-x="-9"
   inkscape:window-y="-9"
   inkscape:window-maximized="1"
   inkscape:current-layer="Capa_1" />
<g
   id="g129"
   transform="matrix(0.13333313,0,0,0.13333313,0,-0.0663999)">
	<path
   d="m 55.849,47.834 c -0.429,-4.107 -3.852,-7.332 -7.953,-7.332 -2.564,0 -4.984,1.286 -6.48,3.402 -0.291,-0.051 -0.586,-0.076 -0.883,-0.076 -2.32,0 -4.381,1.577 -5.066,3.813 -1.907,1.131 -3.116,3.241 -3.116,5.502 0,3.507 2.785,6.359 6.208,6.359 h 10.774 c 0.06,0 0.118,-0.004 0.171,-0.008 0.062,0.004 0.124,0.008 0.188,0.008 h 4.31 c 3.225,0 5.849,-2.687 5.849,-5.989 -10e-4,-2.6 -1.643,-4.873 -4.002,-5.679 z m -1.848,9.668 -4.352,-0.003 -0.17,-0.006 -10.922,0.009 c -2.32,0 -4.208,-1.956 -4.208,-4.359 0,-1.665 0.949,-3.21 2.417,-3.935 l 0.435,-0.214 0.102,-0.475 c 0.331,-1.56 1.689,-2.691 3.229,-2.691 0.345,0 0.688,0.057 1.02,0.168 l 0.777,0.261 0.408,-0.711 c 1.096,-1.906 3.024,-3.044 5.158,-3.044 3.265,0 5.955,2.747 5.998,6.123 l 0.011,0.813 0.799,0.155 c 1.823,0.354 3.146,2.002 3.146,3.919 0.001,2.2 -1.726,3.99 -3.848,3.99 z"
   id="path121" />
	<path
   d="M 0.835,21.498 C 0.314,22.238 0,23.133 0,24.106 V 35.89 c 0,0.974 0.314,1.868 0.835,2.608 h 42.569 c 1.403,-0.643 2.93,-0.996 4.491,-0.996 1.577,0 3.097,0.357 4.481,0.996 h 6.788 C 59.686,37.758 60,36.863 60,35.89 V 24.106 c 0,-0.974 -0.314,-1.868 -0.835,-2.608 z m 9.665,13 c -2.481,0 -4.5,-2.019 -4.5,-4.5 0,-2.481 2.019,-4.5 4.5,-4.5 2.481,0 4.5,2.019 4.5,4.5 0,2.481 -2.019,4.5 -4.5,4.5 z m 23.5,-5 c -0.552,0 -1,-0.448 -1,-1 0,-0.552 0.448,-1 1,-1 0.552,0 1,0.448 1,1 0,0.552 -0.448,1 -1,1 z m 4,0 c -0.552,0 -1,-0.448 -1,-1 0,-0.552 0.448,-1 1,-1 0.552,0 1,0.448 1,1 0,0.552 -0.448,1 -1,1 z m 4,0 c -0.552,0 -1,-0.448 -1,-1 0,-0.552 0.448,-1 1,-1 0.552,0 1,0.448 1,1 0,0.552 -0.448,1 -1,1 z m 4,0 c -0.552,0 -1,-0.448 -1,-1 0,-0.552 0.448,-1 1,-1 0.552,0 1,0.448 1,1 0,0.552 -0.448,1 -1,1 z m 4,0 c -0.552,0 -1,-0.448 -1,-1 0,-0.552 0.448,-1 1,-1 0.552,0 1,0.448 1,1 0,0.552 -0.448,1 -1,1 z"
   id="path123" />
	<path
   d="M 55.392,0.498 H 4.608 C 2.067,0.498 0,2.565 0,5.106 V 16.89 c 0,0.974 0.314,1.868 0.835,2.608 H 59.164 C 59.686,18.758 60,17.863 60,16.89 V 5.106 C 60,2.565 57.933,0.498 55.392,0.498 Z m -44.892,15 c -2.481,0 -4.5,-2.019 -4.5,-4.5 0,-2.481 2.019,-4.5 4.5,-4.5 2.481,0 4.5,2.019 4.5,4.5 0,2.481 -2.019,4.5 -4.5,4.5 z m 23.5,-5 c -0.552,0 -1,-0.448 -1,-1 0,-0.552 0.448,-1 1,-1 0.552,0 1,0.448 1,1 0,0.552 -0.448,1 -1,1 z m 2,3 c -0.552,0 -1,-0.448 -1,-1 0,-0.552 0.448,-1 1,-1 0.552,0 1,0.448 1,1 0,0.552 -0.448,1 -1,1 z m 2,-3 c -0.552,0 -1,-0.448 -1,-1 0,-0.552 0.448,-1 1,-1 0.552,0 1,0.448 1,1 0,0.552 -0.448,1 -1,1 z m 2,3 c -0.552,0 -1,-0.448 -1,-1 0,-0.552 0.448,-1 1,-1 0.552,0 1,0.448 1,1 0,0.552 -0.448,1 -1,1 z m 2,-3 c -0.552,0 -1,-0.448 -1,-1 0,-0.552 0.448,-1 1,-1 0.552,0 1,0.448 1,1 0,0.552 -0.448,1 -1,1 z m 2,3 c -0.552,0 -1,-0.448 -1,-1 0,-0.552 0.448,-1 1,-1 0.552,0 1,0.448 1,1 0,0.552 -0.448,1 -1,1 z m 2,-3 c -0.552,0 -1,-0.448 -1,-1 0,-0.552 0.448,-1 1,-1 0.552,0 1,0.448 1,1 0,0.552 -0.448,1 -1,1 z m 2,3 c -0.552,0 -1,-0.448 -1,-1 0,-0.552 0.448,-1 1,-1 0.552,0 1,0.448 1,1 0,0.552 -0.448,1 -1,1 z m 2,-3 c -0.552,0 -1,-0.448 -1,-1 0,-0.552 0.448,-1 1,-1 0.552,0 1,0.448 1,1 0,0.552 -0.448,1 -1,1 z m 2,3 c -0.552,0 -1,-0.448 -1,-1 0,-0.552 0.448,-1 1,-1 0.552,0 1,0.448 1,1 0,0.552 -0.448,1 -1,1 z"
   id="path125" />
	<path
   d="m 33.008,45.691 c 1.305,-2.82 4.02,-4.68 7.063,-4.851 0.117,-0.121 0.246,-0.228 0.368,-0.343 H 0.835 C 0.314,41.238 0,42.133 0,43.106 V 54.89 c 0,2.541 2.067,4.608 4.608,4.608 h 27.209 c -1.526,-1.671 -2.468,-3.901 -2.468,-6.355 0.001,-2.914 1.363,-5.678 3.659,-7.452 z M 10.5,53.498 c -2.481,0 -4.5,-2.019 -4.5,-4.5 0,-2.481 2.019,-4.5 4.5,-4.5 2.481,0 4.5,2.019 4.5,4.5 0,2.481 -2.019,4.5 -4.5,4.5 z"
   id="path127" />
</g>
</svg>
